<?xml version="1.0" encoding="UTF-8"?>
<svg width="32px" height="32px" viewBox="0 0 32 32" version="1.1" xmlns="http://www.w3.org/2000/svg" xmlns:xlink="http://www.w3.org/1999/xlink">
    <!-- Generator: Sketch 64 (93537) - https://sketch.com -->
    <title>Icon-Category/32/All-Products_32</title>
    <desc>Created with Sketch.</desc>
    <g id="Icon-Category/32/All-Products_32" stroke="none" stroke-width="1" fill="none" fill-rule="evenodd">
        <path d="M7,18 L14.5,18 C14.776,18 15,18.224 15,18.5 L15,21.931 L23.661,15.496 L15,9.069 L15,12.5 C15,12.776 14.776,13 14.5,13 L7,13 L7,18 Z M14.5,23.425 C14.423,23.425 14.347,23.407 14.275,23.372 C14.106,23.287 14,23.114 14,22.925 L14,19 L6.5,19 C6.224,19 6,18.776 6,18.5 L6,12.5 C6,12.224 6.224,12 6.5,12 L14,12 L14,8.075 C14,7.886 14.106,7.713 14.275,7.628 C14.443,7.544 14.646,7.56 14.798,7.674 L24.798,15.095 C24.925,15.189 25,15.338 25,15.496 C25,15.654 24.925,15.803 24.798,15.897 L14.798,23.326 C14.71,23.392 14.605,23.425 14.5,23.425 L14.5,23.425 Z M4,3 C3.448,3 3,3.449 3,4 L3,28 C3,28.551 3.448,29 4,29 L28,29 C28.552,29 29,28.551 29,28 L29,4 C29,3.449 28.552,3 28,3 L4,3 Z M28,30 L4,30 C2.897,30 2,29.103 2,28 L2,4 C2,2.897 2.897,2 4,2 L28,2 C29.103,2 30,2.897 30,4 L30,28 C30,29.103 29.103,30 28,30 L28,30 Z" id="All-Products_Category-Icon_32_Squid-" fill="#232F3D"></path>
    </g>
</svg>