<?xml version="1.0" encoding="UTF-8"?>
<svg width="32px" height="32px" viewBox="0 0 32 32" version="1.1" xmlns="http://www.w3.org/2000/svg" xmlns:xlink="http://www.w3.org/1999/xlink">
    <!-- Generator: Sketch 64 (93537) - https://sketch.com -->
    <title>Icon-Category/32/Customer-Engagement_32</title>
    <desc>Created with Sketch.</desc>
    <g id="Icon-Category/32/Customer-Engagement_32" stroke="none" stroke-width="1" fill="none" fill-rule="evenodd">
        <path d="M11,20 L15,20 L15,19 L11,19 L11,20 Z M5,20 L9,20 L9,19 L5,19 L5,20 Z M16,10 L26,10 L26,9 L16,9 L16,10 Z M16,7 L26,7 L26,6 L16,6 L16,7 Z M30,2.5 L30,15.5 C30,15.776 29.776,16 29.5,16 L26.799,16 L22.836,19.601 C22.742,19.686 22.622,19.73 22.5,19.73 C22.432,19.73 22.362,19.716 22.298,19.687 C22.117,19.607 22,19.428 22,19.23 L22,16 L19,16 L19,15 L22.5,15 C22.776,15 23,15.224 23,15.5 L23,18.101 L26.27,15.13 C26.361,15.046 26.481,15 26.605,15 L29,15 L29,3 L13,3 L13,12 L12,12 L12,2.5 C12,2.224 12.224,2 12.5,2 L29.5,2 C29.776,2 30,2.224 30,2.5 L30,2.5 Z M17,25 L14.5,25 C14.224,25 14,25.224 14,25.5 L14,28.315 L10.743,25.142 C10.65,25.051 10.524,25 10.395,25 L3,25 L3,14 L17,14 L17,25 Z M17.5,13 L2.5,13 C2.224,13 2,13.224 2,13.5 L2,25.5 C2,25.776 2.224,26 2.5,26 L10.191,26 L14.151,29.858 C14.246,29.951 14.372,30 14.5,30 C14.565,30 14.632,29.987 14.694,29.96 C14.88,29.882 15,29.701 15,29.5 L15,26 L17.5,26 C17.776,26 18,25.776 18,25.5 L18,13.5 C18,13.224 17.776,13 17.5,13 L17.5,13 Z" id="Customer-Engagement_Category-Icon_32_Squid-" fill="#232F3D"></path>
    </g>
</svg>