<?xml version="1.0" encoding="UTF-8"?>
<svg width="24px" height="24px" viewBox="0 0 24 24" version="1.1" xmlns="http://www.w3.org/2000/svg" xmlns:xlink="http://www.w3.org/1999/xlink">
    <title>Icon-Architecture/16/Arch_AWS-Cranberry_16</title>
    <defs>
        <linearGradient x1="0%" y1="100%" x2="100%" y2="0%" id="linearGradient-1">
            <stop stop-color="#4D27A8" offset="0%"></stop>
            <stop stop-color="#A166FF" offset="100%"></stop>
        </linearGradient>
    </defs>
    <g id="Icon-Architecture/16/Arch_AWS-Cranberry_16" stroke="none" stroke-width="1" fill="none" fill-rule="evenodd">
        <g id="Rectangle" fill="url(#linearGradient-1)">
            <rect x="0" y="0" width="24" height="24"></rect>
        </g>
        <g id="Icon-Service/16/AWS-Cranberry_16" transform="translate(4.000000, 4.000000)" fill="#FFFFFF">
            <path d="M7.343,9.931 C7.343,8.483 8.521,7.306 9.969,7.306 C11.416,7.306 12.594,8.483 12.594,9.931 C12.594,11.379 11.416,12.556 9.969,12.556 C8.521,12.556 7.343,11.379 7.343,9.931 L7.343,9.931 Z M15.853,15.147 L12.833,12.127 C13.303,11.516 13.594,10.76 13.594,9.931 C13.594,7.932 11.968,6.306 9.969,6.306 C7.97,6.306 6.343,7.932 6.343,9.931 C6.343,11.93 7.97,13.556 9.969,13.556 C10.779,13.556 11.519,13.281 12.122,12.83 L15.146,15.854 L15.853,15.147 Z M2.133,1.616 C2.79,1.335 3.994,1 6,1 C9.49,1 11,2.117 11,2.686 C11,3.261 9.449,4.069 6,4.069 C2.551,4.069 1,3.261 1,2.686 C1,2.319 1.424,1.919 2.133,1.616 L2.133,1.616 Z M6,15 C2.053,15 1,14.04 1,13.472 L1,11.197 C1.659,11.639 2.742,11.975 4.512,11.975 L4.512,10.975 C2.281,10.975 1,10.413 1,9.435 L1,7.143 C1.751,7.716 2.914,8.014 4.512,8.014 L4.512,7.014 C1.4,7.014 1,5.938 1,5 L1,4.142 C2.001,4.735 3.716,5.069 6,5.069 C8.284,5.069 9.999,4.735 11,4.142 L11,5.02 L12,5.02 L12,2.686 C12,1.13 9.477,-5.32907052e-15 6,-5.32907052e-15 C4.279,-5.32907052e-15 2.806,0.241 1.74,0.696 C0.226,1.344 3.28626015e-14,2.222 3.28626015e-14,2.686 L3.28626015e-14,13.472 C3.28626015e-14,14.232 0.585,16 6,16 C8.138,16 9.908,15.589 10.858,14.871 L10.254,14.073 C9.498,14.645 7.868,15 6,15 L6,15 Z" id="Fill-1"></path>
        </g>
    </g>
</svg>