<?xml version="1.0" encoding="UTF-8"?>
<svg width="80px" height="80px" viewBox="0 0 80 80" version="1.1" xmlns="http://www.w3.org/2000/svg" xmlns:xlink="http://www.w3.org/1999/xlink">
    <title>Icon-Architecture/64/Arch_AWS-Cranberry_64</title>
    <defs>
        <linearGradient x1="0%" y1="100%" x2="100%" y2="0%" id="linearGradient-1">
            <stop stop-color="#4D27A8" offset="0%"></stop>
            <stop stop-color="#A166FF" offset="100%"></stop>
        </linearGradient>
    </defs>
    <g id="Icon-Architecture/64/Arch_AWS-Cranberry_64" stroke="none" stroke-width="1" fill="none" fill-rule="evenodd">
        <g id="Rectangle" fill="url(#linearGradient-1)">
            <rect x="0" y="0" width="80" height="80"></rect>
        </g>
        <g id="Icon-Service/64/AWS-Cranberry_64" transform="translate(8.000000, 8.000000)" fill="#FFFFFF">
            <path d="M22,6 C31.72,6 38,7.962 38,11 C38,14.038 31.72,16 22,16 C12.28,16 6,14.038 6,11 C6,7.962 12.28,6 22,6 M22,58 C11.832,58 6,55.813 6,52 L6,43.065 C8.557,45.675 13.561,47 21,47 L21,45 C11.047,45 6,42.645 6,38 L6,28.065 C8.557,30.675 13.561,32 21,32 L21,30 C11.047,30 6,27.645 6,23 L6,14.687 C8.748,16.826 14.25,18 22,18 C29.75,18 35.252,16.826 38,14.687 L38,20 L40,20 L40,11 C40,6.551 33.439,4 22,4 C10.561,4 4,6.551 4,11 L4,52 C4,54.988 6.339,60 22,60 C30.817,60 35.368,59.046 37.707,56.707 L36.293,55.293 C34.396,57.19 30.121,58 22,58 M57.355,57.267 C56.947,57.675 56.476,57.931 56.029,57.988 C55.648,58.038 55.32,57.932 55.069,57.681 L46.911,49.331 C47.847,48.598 48.688,47.756 49.421,46.82 L57.78,54.955 C58.399,55.574 58.035,56.586 57.355,57.267 M25.334,37.844 C25.334,30.897 30.985,25.245 37.933,25.245 C44.88,25.245 50.531,30.897 50.531,37.844 C50.531,44.791 44.88,50.442 37.933,50.442 C30.985,50.442 25.334,44.791 25.334,37.844 M59.185,53.531 L50.56,45.137 C51.806,42.988 52.531,40.502 52.531,37.844 C52.531,29.794 45.982,23.245 37.933,23.245 C29.883,23.245 23.334,29.794 23.334,37.844 C23.334,45.894 29.883,52.442 37.933,52.442 C40.592,52.442 43.079,51.716 45.229,50.469 L53.647,59.087 C54.244,59.684 55.014,60 55.85,60 C55.992,60 56.137,59.991 56.282,59.972 C57.166,59.859 58.049,59.401 58.77,58.681 C60.355,57.094 60.538,54.885 59.185,53.531 M37.933,45.055 C33.889,45.055 30.721,41.888 30.721,37.844 C30.721,33.8 33.889,30.633 37.933,30.633 C41.977,30.633 45.144,33.8 45.144,37.844 C45.144,41.888 41.977,45.055 37.933,45.055 M37.933,28.633 C32.767,28.633 28.721,32.679 28.721,37.844 C28.721,43.009 32.767,47.055 37.933,47.055 C43.098,47.055 47.144,43.009 47.144,37.844 C47.144,32.679 43.098,28.633 37.933,28.633" id="Fill-8"></path>
        </g>
    </g>
</svg>