<?xml version="1.0" encoding="UTF-8"?>
<svg width="64px" height="64px" viewBox="0 0 64 64" version="1.1" xmlns="http://www.w3.org/2000/svg" xmlns:xlink="http://www.w3.org/1999/xlink">
    <!-- Generator: Sketch 64 (93537) - https://sketch.com -->
    <title>Icon-Category/64/All-Products_64</title>
    <desc>Created with Sketch.</desc>
    <g id="Icon-Category/64/All-Products_64" stroke="none" stroke-width="1" fill="none" fill-rule="evenodd">
        <path d="M15,37 L30,37 C30.553,37 31,37.448 31,38 L31,45.898 L49.369,31.981 L32,18.163 L32,26 C32,26.552 31.553,27 31,27 L15,27 L15,37 Z M30,48.911 C29.849,48.911 29.696,48.876 29.555,48.806 C29.215,48.637 29,48.291 29,47.911 L29,39 L14,39 C13.447,39 13,38.552 13,38 L13,26 C13,25.448 13.447,25 14,25 L30,25 L30,16.089 C30,15.706 30.22,15.355 30.565,15.188 C30.913,15.023 31.322,15.068 31.623,15.307 L51.623,31.217 C51.864,31.41 52.004,31.703 52.0000834,32.012 C51.996,32.321 51.851,32.61 51.604,32.797 L30.604,48.708 C30.427,48.842 30.214,48.911 30,48.911 L30,48.911 Z M8,6 C6.897,6 6,6.897 6,8 L6,56 C6,57.103 6.897,58 8,58 L56,58 C57.103,58 58,57.103 58,56 L58,8 C58,6.897 57.103,6 56,6 L8,6 Z M56,60 L8,60 C5.794,60 4,58.206 4,56 L4,8 C4,5.794 5.794,4 8,4 L56,4 C58.206,4 60,5.794 60,8 L60,56 C60,58.206 58.206,60 56,60 L56,60 Z" id="All-Products_Category-Icon_64_Squid-" fill="#232F3D"></path>
    </g>
</svg>