<?xml version="1.0" encoding="UTF-8"?>
<svg width="64px" height="64px" viewBox="0 0 64 64" version="1.1" xmlns="http://www.w3.org/2000/svg" xmlns:xlink="http://www.w3.org/1999/xlink">
    <!-- Generator: Sketch 64 (93537) - https://sketch.com -->
    <title>Icon-Category/64/Customer-Enablement_64</title>
    <desc>Created with Sketch.</desc>
    <g id="Icon-Category/64/Customer-Enablement_64" stroke="none" stroke-width="1" fill="none" fill-rule="evenodd">
        <path d="M57,46.232 L47.111,51.282 C46.45,42.78 41.919,35.843 35.965,33.74 C38.99,32.288 41.089,29.203 41.089,25.629 C41.089,20.667 37.052,16.629 32.089,16.629 C27.126,16.629 23.089,20.667 23.089,25.629 C23.089,29.229 25.218,32.333 28.278,33.771 C22.307,35.914 17.868,42.84 17.275,51.48 L7,46.232 L7,18.013 L32,5.246 L57,18.013 L57,46.232 Z M32.089,32.629 C28.229,32.629 25.089,29.489 25.089,25.629 C25.089,21.77 28.229,18.629 32.089,18.629 C35.948,18.629 39.089,21.77 39.089,25.629 C39.089,29.489 35.948,32.629 32.089,32.629 L32.089,32.629 Z M32,59 L19.227,52.476 C19.58,42.665 25.187,35.064 32.197,35.064 C39.09,35.064 44.73,42.689 45.156,52.281 L32,59 Z M32,3 L5,16.789 L5,47.457 L32,61.246 L59,47.457 L59,16.789 L32,3 Z" id="Fill-5" fill="#232F3D"></path>
    </g>
</svg>