<?xml version="1.0" encoding="UTF-8"?>
<svg width="64px" height="64px" viewBox="0 0 64 64" version="1.1" xmlns="http://www.w3.org/2000/svg" xmlns:xlink="http://www.w3.org/1999/xlink">
    <!-- Generator: Sketch 64 (93537) - https://sketch.com -->
    <title>Icon-Category/64/Customer-Engagement_64</title>
    <desc>Created with Sketch.</desc>
    <g id="Icon-Category/64/Customer-Engagement_64" stroke="none" stroke-width="1" fill="none" fill-rule="evenodd">
        <path d="M25,40 L31,40 L31,38 L25,38 L25,40 Z M17,40 L23,40 L23,38 L17,38 L17,40 Z M9,40 L15,40 L15,38 L9,38 L9,40 Z M30,20 L52,20 L52,18 L30,18 L30,20 Z M30,13 L52,13 L52,11 L30,11 L30,13 Z M60,4.965 L60,32.965 C60,33.517 59.553,33.965 59,33.965 L53.229,33.965 L44.673,41.74 C44.484,41.911 44.244,42 44,42 C43.863,42 43.726,41.972 43.596,41.915 C43.233,41.754 43,41.396 43,41 L43,33.965 L39,33.965 L39,32 L44,32 C44.553,32 45,32.448 45,33 L45,38.74 L52.169,32.26 C52.354,32.093 52.593,32 52.842,32 L58,32 L58,5.965 L24,5.965 L24,25 L22,25 L22,4.965 C22,4.413 22.447,4 23,4 L59,4 C59.553,4 60,4.413 60,4.965 L60,4.965 Z M35,50 L29,50 C28.447,50 28,50.448 28,51 L28,56.747 L20.829,50.258 C20.646,50.092 20.406,50 20.158,50 L6,50 L6,29 L35,29 L35,50 Z M36,27 L5,27 C4.447,27 4,27.448 4,28 L4,51 C4,51.552 4.447,52 5,52 L19.773,52 L28.329,59.742 C28.517,59.911 28.757,60 29,60 C29.138,60 29.275,59.972 29.405,59.914 C29.767,59.753 30,59.396 30,59 L30,52 L36,52 C36.553,52 37,51.552 37,51 L37,28 C37,27.448 36.553,27 36,27 L36,27 Z" id="Customer-Engagement_Category-Icon_64_Squid-" fill="#232F3D"></path>
    </g>
</svg>