<?xml version="1.0" encoding="UTF-8"?>
<svg width="88px" height="88px" viewBox="0 0 88 88" version="1.1" xmlns="http://www.w3.org/2000/svg" xmlns:xlink="http://www.w3.org/1999/xlink">
    <title>Icon-Architecture-Category/64/Game-Tech_64</title>
    <defs>
        <linearGradient x1="0%" y1="100%" x2="100%" y2="0%" id="linearGradient-1">
            <stop stop-color="#4D27A8" offset="0%"></stop>
            <stop stop-color="#A166FF" offset="100%"></stop>
        </linearGradient>
    </defs>
    <g id="Icon-Architecture-Category/64/Game-Tech_64" stroke="none" stroke-width="1" fill="none" fill-rule="evenodd">
        <rect id="Rectangle" fill="url(#linearGradient-1)" x="4" y="4" width="80" height="80"></rect>
        <rect id="#879196-Border-Copy-11" stroke="#879196" stroke-width="2" x="1" y="1" width="86" height="86"></rect>
        <g id="Icon-Category/64/Game-Tech_64" transform="translate(12.000000, 12.000000)" fill="#FFFFFF">
            <path d="M58,31.619 C55.849,34.858 52.172,37 48,37 C46.139,37 44.382,36.561 42.808,35.802 C42.942,36.126 43.077,36.452 43.214,36.786 C45.508,42.363 48.649,50 52.867,50 C53.384,50 57.92,49.842 58,44.388 L58,31.619 Z M20.646,36.063 C19.216,36.666 17.646,37 16,37 C11.828,37 8.151,34.858 6,31.619 L6,44.4 C6.08,49.842 10.616,50 11.133,50 C15.194,50 17.859,43.179 20.001,37.699 C20.22,37.14 20.434,36.597 20.646,36.063 L20.646,36.063 Z M6,25 C6,30.514 10.486,35 16,35 C18.225,35 20.274,34.261 21.937,33.027 C21.946,33.01 21.954,32.989 21.963,32.972 L21.993,32.986 C24.42,31.16 26,28.265 26,25 C26,19.486 21.514,15 16,15 C10.486,15 6,19.486 6,25 L6,25 Z M26.376,19 C27.402,20.767 28,22.813 28,25 C28,27.613 27.15,30.027 25.727,32 L38.273,32 C36.85,30.027 36,27.613 36,25 C36,22.813 36.598,20.767 37.624,19 L26.376,19 Z M38,25 C38,30.514 42.486,35 48,35 C53.514,35 58,30.514 58,25 C58,19.486 53.514,15 48,15 C42.486,15 38,19.486 38,25 L38,25 Z M60,24.5 L60,44.4 C59.976,47.035 58.454,52 52.867,52 C47.309,52 44.013,43.986 41.364,37.547 C40.838,36.267 40.338,35.057 39.858,34 L23.911,34 C23.791,34.106 23.674,34.215 23.549,34.316 C23,35.529 22.446,36.935 21.863,38.427 C19.378,44.789 16.56,52 11.133,52 C5.546,52 4.024,47.035 4,44.409 L4,25 C4,18.383 9.383,13 16,13 C19.585,13 22.799,14.588 25,17.089 L25,17 L39.081,17 C41.279,14.552 44.458,13 48,13 C54.448,13 59.71,18.116 59.975,24.5 L60,24.5 Z M44,26 L52,26 L52,24 L44,24 L44,26 Z M15,26 L12,26 L12,24 L15,24 L15,21 L17,21 L17,24 L20,24 L20,26 L17,26 L17,29 L15,29 L15,26 Z" id="Gaem-Tech_Category-Icon_64_Squid--"></path>
        </g>
    </g>
</svg>