<?xml version="1.0" encoding="UTF-8"?>
<svg width="40px" height="40px" viewBox="0 0 40 40" version="1.1" xmlns="http://www.w3.org/2000/svg" xmlns:xlink="http://www.w3.org/1999/xlink">
    <title>Icon-Architecture/32/Arch_AWS-Cranberry_32</title>
    <defs>
        <linearGradient x1="0%" y1="100%" x2="100%" y2="0%" id="linearGradient-1">
            <stop stop-color="#4D27A8" offset="0%"></stop>
            <stop stop-color="#A166FF" offset="100%"></stop>
        </linearGradient>
    </defs>
    <g id="Icon-Architecture/32/Arch_AWS-Cranberry_32" stroke="none" stroke-width="1" fill="none" fill-rule="evenodd">
        <g id="Rectangle" fill="url(#linearGradient-1)">
            <rect x="0" y="0" width="40" height="40"></rect>
        </g>
        <g id="Icon-Service/32/AWS-Cranberry_32" transform="translate(4.000000, 4.000000)" fill="#FFFFFF">
            <path d="M11.5,3 C16.267,3 20,4.098 20,5.5 C20,6.902 16.267,8 11.5,8 C5.92,8 3,6.742 3,5.5 C3,4.258 5.92,3 11.5,3 M11.5,29 C5.92,29 3,27.808 3,26.629 L3,20.857 C4.05,21.966 6.18,23 10.5,23 L10.5,22 C4.971,22 3,20.192 3,18.5 L3,13.912 C4.062,15.016 6.21,16 10.5,16 L10.5,15 C5.804,15 3,13.691 3,11.5 L3,7.253 C4.665,8.51 8.161,9 11.5,9 C14.707,9 18.299,8.506 20,7.23 L20,10 L21,10 L21,5.5 C21,2.917 15.883,2 11.5,2 C6.907,2 2,2.919 2,5.5 L2,26.629 C2,29.757 9.271,30 11.5,30 C15.425,30 17.757,29.502 19.3,28.336 L18.696,27.538 C17.342,28.563 15.189,29 11.5,29 M28.638,28.569 C28.437,28.77 28.206,28.896 27.986,28.924 C27.794,28.948 27.64,28.896 27.518,28.774 L23.494,24.655 C23.952,24.295 24.365,23.882 24.725,23.424 L28.848,27.436 C29.15,27.739 28.972,28.236 28.638,28.569 M12.835,18.982 C12.835,15.555 15.623,12.766 19.051,12.766 C22.478,12.766 25.266,15.555 25.266,18.982 C25.266,22.409 22.478,25.197 19.051,25.197 C15.623,25.197 12.835,22.409 12.835,18.982 M29.55,26.724 L25.294,22.583 C25.908,21.521 26.266,20.294 26.266,18.982 C26.266,15.003 23.029,11.766 19.051,11.766 C15.072,11.766 11.835,15.003 11.835,18.982 C11.835,22.96 15.072,26.197 19.051,26.197 C20.363,26.197 21.591,25.839 22.652,25.225 L26.807,29.477 C27.103,29.773 27.483,29.93 27.898,29.93 C27.969,29.93 28.041,29.925 28.113,29.916 C28.551,29.86 28.988,29.633 29.345,29.276 C30.131,28.491 30.221,27.396 29.55,26.724 M19.051,22.537 C17.057,22.537 15.495,20.975 15.495,18.982 C15.495,16.988 17.057,15.427 19.051,15.427 C21.044,15.427 22.605,16.988 22.605,18.982 C22.605,20.975 21.044,22.537 19.051,22.537 M19.051,14.427 C16.496,14.427 14.495,16.428 14.495,18.982 C14.495,21.536 16.496,23.537 19.051,23.537 C21.604,23.537 23.605,21.536 23.605,18.982 C23.605,16.428 21.604,14.427 19.051,14.427" id="Fill-4"></path>
        </g>
    </g>
</svg>