<?xml version="1.0" encoding="UTF-8"?>
<svg width="48px" height="48px" viewBox="0 0 48 48" version="1.1" xmlns="http://www.w3.org/2000/svg" xmlns:xlink="http://www.w3.org/1999/xlink">
    <title>Icon-Resource/Management-Governance/Res_AWS-Organizations_Account_48_Dark</title>
    <g id="Icon-Resource/Management-Governance/Res_AWS-Organizations_Account_48" stroke="none" stroke-width="1" fill="none" fill-rule="evenodd">
        <path d="M11.096,11.381 C11.096,7.311 14.408,4 18.477,4 C22.546,4 25.858,7.311 25.858,11.381 C25.858,15.451 22.546,18.762 18.477,18.762 C14.408,18.762 11.096,15.451 11.096,11.381 L11.096,11.381 Z M18.453,20.762 C20.877,20.762 23.253,21.452 25.325,22.756 C25.806,23.061 26.278,23.402 26.725,23.771 L27.998,22.229 C27.486,21.806 26.945,21.414 26.391,21.065 C25.358,20.414 24.255,19.904 23.114,19.525 C25.943,17.908 27.858,14.866 27.858,11.381 C27.858,6.208 23.65,2 18.477,2 C13.304,2 9.096,6.208 9.096,11.381 C9.096,14.857 11,17.89 13.817,19.511 C7.555,21.586 3,27.744 3,35 C3,35.552 3.448,36 4,36 L21.92,36 L21.92,34 L5.034,34 C5.519,26.613 11.353,20.762 18.453,20.762 L18.453,20.762 Z M36,43.129 L36,34.665 L43,30.53 L43,38.912 L36,43.129 Z M26.914,30.386 L34,34.61 L34,43.139 L27,38.857 L26.914,30.386 Z M35.01,24.473 L42.12,28.705 L35.002,32.91 L28.055,28.77 L35.01,24.473 Z M44.512,27.863 L35.478,22.485 C35.158,22.295 34.758,22.298 34.441,22.494 L25.475,28.032 C25.177,28.216 24.996,28.543 24.999935,28.894 L25.108,39.38 C25.111,39.724 25.291,40.043 25.586,40.223 L34.553,45.709 C34.713,45.807 34.893,45.855 35.073,45.855 C35.251,45.855 35.429,45.808 35.586,45.712 L44.517,40.333 C44.817,40.152 45,39.827 45,39.477 L45,28.722 C45,28.369 44.815,28.043 44.512,27.863 L44.512,27.863 Z" id="Fill-1" fill="#FF4F8B"></path>
    </g>
</svg>