<?xml version="1.0" encoding="UTF-8"?>
<svg width="48px" height="48px" viewBox="0 0 48 48" version="1.1" xmlns="http://www.w3.org/2000/svg" xmlns:xlink="http://www.w3.org/1999/xlink">
    <!-- Generator: Sketch 64 (93537) - https://sketch.com -->
    <title>Icon-Category/48/All-Products_48</title>
    <desc>Created with Sketch.</desc>
    <g id="Icon-Category/48/All-Products_48" stroke="none" stroke-width="1" fill="none" fill-rule="evenodd">
        <path d="M11,28 L23,28 C23.553,28 24,28.448 24,29 L24,34.285 L36.77,23.994 L24,13.714 L24,19 C24,19.552 23.553,20 23,20 L11,20 L11,28 Z M23,37.375 C22.854,37.375 22.706,37.343 22.568,37.277 C22.221,37.111 22,36.76 22,36.375 L22,30 L10,30 C9.447,30 9,29.552 9,29 L9,19 C9,18.448 9.447,18 10,18 L22,18 L22,11.625 C22,11.24 22.221,10.889 22.568,10.723 C22.916,10.557 23.328,10.604 23.627,10.846 L38.99,23.215 C39.227,23.404 39.363,23.691 39.363,23.993 C39.363,24.296 39.227,24.583 38.991,24.772 L23.628,37.154 C23.446,37.3 23.224,37.375 23,37.375 L23,37.375 Z M5.333,4 C4.598,4 4,4.598 4,5.333 L4,42.667 C4,43.402 4.598,44 5.333,44 L42.667,44 C43.402,44 44,43.402 44,42.667 L44,5.333 C44,4.598 43.402,4 42.667,4 L5.333,4 Z M42.667,46 L5.333,46 C3.495,46 2,44.504 2,42.667 L2,5.333 C2,3.496 3.495,2 5.333,2 L42.667,2 C44.505,2 46,3.496 46,5.333 L46,42.667 C46,44.504 44.505,46 42.667,46 L42.667,46 Z" id="All-Products_Category-Icon_48_Squid-" fill="#232F3D"></path>
    </g>
</svg>