<?xml version="1.0" encoding="UTF-8"?>
<svg width="48px" height="48px" viewBox="0 0 48 48" version="1.1" xmlns="http://www.w3.org/2000/svg" xmlns:xlink="http://www.w3.org/1999/xlink">
    <!-- Generator: Sketch 64 (93537) - https://sketch.com -->
    <title>Icon-Category/48/AR-VR_48</title>
    <desc>Created with Sketch.</desc>
    <g id="Icon-Category/48/AR-VR_48" stroke="none" stroke-width="1" fill="none" fill-rule="evenodd">
        <path d="M44,32.61 C44,33.737 42.448,35 41.088,35 L32,35 C30.547,35 29.687,33.764 29.367,33.223 L26.716,28.754 C26.141,27.786 25.126,27.208 24,27.208 C22.874,27.208 21.859,27.786 21.284,28.754 L18.634,33.222 C18.039,34.223 16.711,35 15.544,35 L6.5,35 C5.238,35 4,33.805 4,32.61 L4,18.978 L44,18.978 L44,32.61 Z M8.469,12.978 L39.531,12.978 L42.864,17 L5.136,17 L8.469,12.978 Z M45.769,17.338 L40.769,11.338 C40.578,11.11 40.297,11 40,11 L8,11 C7.703,11 7.422,11.11 7.231,11.338 L2.231,17.338 L2.242,17.347 C2.098,17.52 2,17.735 2,17.978 L2,32.61 C2,34.896 4.145,36.978 6.5,36.978 L15.544,36.978 C17.419,36.978 19.396,35.854 20.354,34.243 L23.005,29.775 C23.309,29.263 23.802,29.208 24,29.208 C24.198,29.208 24.691,29.263 24.995,29.775 L27.646,34.243 C28.694,36.009 30.253,37 32,37 L41.044,37 C43.269,37 46,35.054 46,32.61 L46,17.978 C46,17.735 45.902,17.52 45.758,17.347 L45.769,17.338 Z" id="AR-VR_Category-Icon_48_Squid--" fill="#232F3D"></path>
    </g>
</svg>