<?xml version="1.0" encoding="UTF-8"?>
<svg width="48px" height="48px" viewBox="0 0 48 48" version="1.1" xmlns="http://www.w3.org/2000/svg" xmlns:xlink="http://www.w3.org/1999/xlink">
    <!-- Generator: Sketch 64 (93537) - https://sketch.com -->
    <title>Icon-Category/48/Containers_48</title>
    <desc>Created with Sketch.</desc>
    <g id="Icon-Category/48/Containers_48" stroke="none" stroke-width="1" fill="none" fill-rule="evenodd">
        <path d="M6,40 L42,40 L42,26 L6,26 L6,40 Z M4,44 L44,44 L44,42 L4,42 L4,44 Z M44,26 L44,40 L45,40 C45.553,40 46,40.448 46,41 L46,45 C46,45.552 45.553,46 45,46 L3,46 C2.447,46 2,45.552 2,45 L2,41 C2,40.448 2.447,40 3,40 L4,40 L4,26 L3,26 C2.447,26 2,25.552 2,25 L2,21 C2,20.643 2.198,20.344 2.48,20.167 L2.471,20.152 L17.671,10.652 L18.731,12.348 L6.488,20 L31,20 L31,22 L4,22 L4,24 L44,24 L44,22 L33,22 L33,20 L41.512,20 L29.269,12.348 L30.329,10.652 L45.529,20.152 L45.52,20.167 C45.802,20.344 46,20.643 46,21 L46,25 C46,25.552 45.553,26 45,26 L44,26 Z M24,12 C25.93,12 27.5,10.43 27.5,8.5 L25.5,8.5 C25.5,9.327 24.827,10 24,10 C23.173,10 22.5,9.327 22.5,8.5 C22.5,7.673 23.173,7 24,7 C24.553,7 25,6.552 25,6 L25,2 L23,2 L23,5.146 C21.556,5.577 20.5,6.917 20.5,8.5 C20.5,10.43 22.07,12 24,12 L24,12 Z M8,38 L10,38 L10,28 L8,28 L8,38 Z M13,38 L15,38 L15,28 L13,28 L13,38 Z M18,38 L20,38 L20,28 L18,28 L18,38 Z M38,38 L40,38 L40,28 L38,28 L38,38 Z M33,38 L35,38 L35,28 L33,28 L33,38 Z M28,38 L30,38 L30,28 L28,28 L28,38 Z M23,38 L25,38 L25,28 L23,28 L23,38 Z" id="Fill-3" fill="#232F3D"></path>
    </g>
</svg>