<?xml version="1.0" encoding="UTF-8"?>
<svg width="48px" height="48px" viewBox="0 0 48 48" version="1.1" xmlns="http://www.w3.org/2000/svg" xmlns:xlink="http://www.w3.org/1999/xlink">
    <!-- Generator: Sketch 64 (93537) - https://sketch.com -->
    <title>Icon-Category/48/Customer-Engagement_48</title>
    <desc>Created with Sketch.</desc>
    <g id="Icon-Category/48/Customer-Engagement_48" stroke="none" stroke-width="1" fill="none" fill-rule="evenodd">
        <path d="M19,30 L23,30 L23,28 L19,28 L19,30 Z M13,30 L17,30 L17,28 L13,28 L13,30 Z M7,30 L11,30 L11,28 L7,28 L7,30 Z M23,14.974 L40,14.974 L40,13 L23,13 L23,14.974 Z M23,10 L40,10 L40,8 L23,8 L23,10 Z M46,3 L46,24 C46,24.552 45.553,25 45,25 L41.019,25 L34.673,30.74 C34.484,30.911 34.244,31 34,31 C33.863,31 33.726,30.972 33.596,30.915 C33.233,30.754 33,30.396 33,30 L33,25 L30,25 L30,23 L34,23 C34.553,23 35,23.448 35,24 L35,27.74 L39.959,23.26 C40.144,23.093 40.383,23 40.632,23 L44,23 L44,4 L19,4 L19,17 L17,17 L17,3 C17,2.448 17.447,2 18,2 L45,2 C45.553,2 46,2.448 46,3 L46,3 Z M26,38 L22,38 C21.447,38 21,38.448 21,39 L21,42.747 L16.039,38.258 C15.855,38.092 15.616,38 15.368,38 L4,38 L4,21 L26,21 L26,38 Z M27,19 L3,19 C2.447,19 2,19.448 2,20 L2,39 C2,39.552 2.447,40 3,40 L14.983,40 L21.329,45.742 C21.517,45.911 21.757,46 22,46 C22.138,46 22.275,45.972 22.405,45.914 C22.767,45.753 23,45.396 23,45 L23,40 L27,40 C27.553,40 28,39.552 28,39 L28,20 C28,19.448 27.553,19 27,19 L27,19 Z" id="Customer-Engagement_Category-Icon_48_Squid-" fill="#232F3D"></path>
    </g>
</svg>