<?xml version="1.0" encoding="UTF-8"?>
<svg width="48px" height="48px" viewBox="0 0 48 48" version="1.1" xmlns="http://www.w3.org/2000/svg" xmlns:xlink="http://www.w3.org/1999/xlink">
    <!-- Generator: Sketch 64 (93537) - https://sketch.com -->
    <title>Icon-Category/48/Game-Tech_48</title>
    <desc>Created with Sketch.</desc>
    <g id="Icon-Category/48/Game-Tech_48" stroke="none" stroke-width="1" fill="none" fill-rule="evenodd">
        <path d="M34,18.8 L40,18.8 L40,16.8 L34,16.8 L34,18.8 Z M44,23.645 C42.349,25.688 39.826,27 37,27 C35.717,27 34.497,26.726 33.392,26.239 C33.586,26.723 33.781,27.219 33.981,27.732 C35.561,31.772 37.525,36.8 40.4,36.8 C43.835,36.8 43.993,33.243 44,32.837 L44,23.645 Z M14.019,27.732 C14.219,27.219 14.414,26.723 14.608,26.239 C13.503,26.726 12.283,27 11,27 C8.174,27 5.651,25.688 4,23.645 L4,32.85 C4.007,33.243 4.165,36.8 7.6,36.8 C10.475,36.8 12.439,31.772 14.019,27.732 L14.019,27.732 Z M4,18 C4,21.86 7.141,25 11,25 C14.859,25 18,21.86 18,18 C18,14.14 14.859,11 11,11 C7.141,11 4,14.14 4,18 L4,18 Z M18.954,13.8 C19.619,15.055 20,16.484 20,18 C20,20.209 19.196,22.232 17.871,23.8 L30.129,23.8 C28.804,22.232 28,20.209 28,18 C28,16.484 28.381,15.055 29.046,13.8 L18.954,13.8 Z M30,18 C30,21.86 33.141,25 37,25 C40.859,25 44,21.86 44,18 C44,14.14 40.859,11 37,11 C33.141,11 30,14.14 30,18 L30,18 Z M45.99,17.8 L46,17.8 L46,32.85 C45.981,34.914 44.787,38.8 40.4,38.8 C36.159,38.8 34.013,33.307 32.119,28.46 C31.749,27.513 31.395,26.606 31.046,25.8 L16.954,25.8 C16.605,26.606 16.251,27.513 15.881,28.46 C13.987,33.307 11.841,38.8 7.6,38.8 C3.213,38.8 2.019,34.914 2,32.859 L2,17.8 L2.01,17.8 C2.118,12.93 6.104,9 11,9 C13.56,9 15.867,10.079 17.507,11.8 L30.493,11.8 C32.133,10.079 34.44,9 37,9 C41.896,9 45.882,12.93 45.99,17.8 L45.99,17.8 Z M10,18.8 L8,18.8 L8,16.8 L10,16.8 L10,14.8 L12,14.8 L12,16.8 L14,16.8 L14,18.8 L12,18.8 L12,20.8 L10,20.8 L10,18.8 Z" id="Gaem-Tech_Category-Icon_48_Squid--" fill="#232F3D"></path>
    </g>
</svg>