<?xml version="1.0" encoding="UTF-8"?>
<svg width="16px" height="16px" viewBox="0 0 16 16" version="1.1" xmlns="http://www.w3.org/2000/svg" xmlns:xlink="http://www.w3.org/1999/xlink">
    <!-- Generator: Sketch 64 (93537) - https://sketch.com -->
    <title>Icon-Category/16/All-Products_16</title>
    <desc>Created with Sketch.</desc>
    <g id="Icon-Category/16/All-Products_16" stroke="none" stroke-width="1" fill="none" fill-rule="evenodd">
        <path d="M4,9 L7.5,9 C7.776,9 8,9.224 8,9.5 L8,11.445 L12.21,8 L8,4.555 L8,6.5 C8,6.776 7.776,7 7.5,7 L4,7 L4,9 Z M7.5,13 C7.427,13 7.354,12.984 7.286,12.952 C7.111,12.869 7,12.693 7,12.5 L7,10 L3.509,10 C3.232,10 3.009,9.776 3.009,9.5 L3.009,6.5 C3.009,6.224 3.232,6 3.509,6 L7,6 L7,3.5 C7,3.307 7.111,3.131 7.286,3.048 C7.46,2.964 7.667,2.991 7.816,3.113 L13.316,7.613 C13.433,7.708 13.5,7.85 13.5,8 C13.5,8.15 13.433,8.292 13.316,8.387 L7.816,12.887 C7.726,12.961 7.613,13 7.5,13 L7.5,13 Z M1.333,1 C1.149,1 1,1.149 1,1.333 L1,14.667 C1,14.851 1.149,15 1.333,15 L14.667,15 C14.851,15 15,14.851 15,14.667 L15,1.333 C15,1.149 14.851,1 14.667,1 L1.333,1 Z M14.667,16 L1.333,16 C0.598,16 0,15.402 0,14.667 L0,1.333 C0,0.598 0.598,0 1.333,0 L14.667,0 C15.402,0 16,0.598 16,1.333 L16,14.667 C16,15.402 15.402,16 14.667,16 L14.667,16 Z" id="All-Products_Category-Icon_16_Squid-" fill="#232F3D"></path>
    </g>
</svg>