<?xml version="1.0" encoding="UTF-8"?>
<svg width="16px" height="16px" viewBox="0 0 16 16" version="1.1" xmlns="http://www.w3.org/2000/svg" xmlns:xlink="http://www.w3.org/1999/xlink">
    <!-- Generator: Sketch 64 (93537) - https://sketch.com -->
    <title>Icon-Category/16/Blockchain_16</title>
    <desc>Created with Sketch.</desc>
    <g id="Icon-Category/16/Blockchain_16" stroke="none" stroke-width="1" fill="none" fill-rule="evenodd">
        <path d="M13,9 L15,9 L15,7 L13,7 L13,9 Z M7,9 L9,9 L9,7 L7,7 L7,9 Z M1,9 L3,9 L3,7 L1,7 L1,9 Z M12,7.5 L10,7.5 L10,6 L6,6 L6,7.5 L4,7.5 L4,6 L0,6 L0,10 L4,10 L4,8.5 L6,8.5 L6,10 L10,10 L10,8.5 L12,8.5 L12,10 L16,10 L16,6 L12,6 L12,7.5 Z" id="Blockchain_Category-Icon_16_Squid--" fill="#232F3D"></path>
    </g>
</svg>