<?xml version="1.0" encoding="UTF-8"?>
<svg width="16px" height="16px" viewBox="0 0 16 16" version="1.1" xmlns="http://www.w3.org/2000/svg" xmlns:xlink="http://www.w3.org/1999/xlink">
    <!-- Generator: Sketch 64 (93537) - https://sketch.com -->
    <title>Icon-Category/16/Customer-Engagement_16</title>
    <desc>Created with Sketch.</desc>
    <g id="Icon-Category/16/Customer-Engagement_16" stroke="none" stroke-width="1" fill="none" fill-rule="evenodd">
        <path d="M5,10 L7,10 L7,9 L5,9 L5,10 Z M2,10 L4,10 L4,9 L2,9 L2,10 Z M9,4 L13,4 L13,3 L9,3 L9,4 Z M16,0.5 L16,7.5 C16,7.776 15.776,8 15.5,8 L13.712,8 L11.859,9.92 C11.764,10.02 11.633,10.073 11.5,10.073 C11.437,10.073 11.373,10.061 11.313,10.037 C11.124,9.96 11,9.777 11,9.573 L11,8 L10,8 L10,7 L11.5,7 C11.776,7 12,7.224 12,7.5 L12,8.334 L13.141,7.153 C13.234,7.055 13.364,7 13.5,7 L15,7 L15,1 L7,1 L7,5 L6,5 L6,0.5 C6,0.224 6.224,0 6.5,0 L15.5,0 C15.776,0 16,0.224 16,0.5 L16,0.5 Z M8,12 L6.5,12 C6.224,12 6,12.224 6,12.5 L6,14.293 L3.854,12.146 C3.76,12.053 3.633,12 3.5,12 L1,12 L1,7 L8,7 L8,12 Z M8.5,6 L0.5,6 C0.224,6 0,6.224 0,6.5 L0,12.5 C0,12.776 0.224,13 0.5,13 L3.293,13 L6.146,15.854 C6.242,15.949 6.37,16 6.5,16 C6.564,16 6.63,15.988 6.691,15.962 C6.878,15.885 7,15.702 7,15.5 L7,13 L8.5,13 C8.776,13 9,12.776 9,12.5 L9,6.5 C9,6.224 8.776,6 8.5,6 L8.5,6 Z" id="Customer-Engagement_Category-Icon_16_Squid--" fill="#232F3D"></path>
    </g>
</svg>