<?xml version="1.0" encoding="UTF-8"?>
<svg width="16px" height="16px" viewBox="0 0 16 16" version="1.1" xmlns="http://www.w3.org/2000/svg" xmlns:xlink="http://www.w3.org/1999/xlink">
    <!-- Generator: Sketch 64 (93537) - https://sketch.com -->
    <title>Icon-Category/16/Storage_16</title>
    <desc>Created with Sketch.</desc>
    <g id="Icon-Category/16/Storage_16" stroke="none" stroke-width="1" fill="none" fill-rule="evenodd">
        <path d="M5,7 L10.794,7 L10.794,6 L5,6 L5,7 Z M6,13 L10,13 L10,12 L6,12 L6,13 Z M11,11.5 L11,13.5 C11,13.776 10.776,14 10.5,14 L5.5,14 C5.224,14 5,13.776 5,13.5 L5,11.5 C5,11.224 5.224,11 5.5,11 L10.5,11 C10.776,11 11,11.224 11,11.5 L11,11.5 Z M14,10 L2,10 L2,14.735 C2,14.881 2.119,15 2.265,15 L13.735,15 C13.881,15 14,14.881 14,14.735 L14,10 Z M4,9 L12,9 L12,4 L9.5,4 C9.224,4 9,3.776 9,3.5 L9,1 L4,1 L4,9 Z M10,1.207 L10,3 L11.793,3 L10,1.207 Z M15,9.5 L15,14.735 C15,15.433 14.433,16 13.735,16 L2.265,16 C1.567,16 1,15.433 1,14.735 L1,9.5 C1,9.224 1.224,9 1.5,9 L3,9 L3,0.5 C3,0.224 3.224,0 3.5,0 L10,0 C10.133,0 10.26,0.053 10.354,0.146 L12.854,2.646 C12.947,2.74 13,2.867 13,3 L13,9 L14.5,9 C14.776,9 15,9.224 15,9.5 L15,9.5 Z M5,5 L8,5 L8,4 L5,4 L5,5 Z" id="Storage_Category-Icon_16_Squid" fill="#232F3D"></path>
    </g>
</svg>