<?xml version="1.0" encoding="UTF-8"?>
<svg width="48px" height="48px" viewBox="0 0 48 48" version="1.1" xmlns="http://www.w3.org/2000/svg" xmlns:xlink="http://www.w3.org/1999/xlink">
    <title>Icon-Resource/Analytics/Res_CN-Elixir-Application-Discovery_48_Light</title>
    <g id="Icon-Resource/Analytics/Res_CN-Elixir-Application-Discovery_48" stroke="none" stroke-width="1" fill="none" fill-rule="evenodd">
        <path d="M6,24 C6,24.551 5.552,25 5,25 C4.448,25 4,24.551 4,24 C4,23.449 4.448,23 5,23 C5.552,23 6,23.449 6,24 L6,24 Z M2,24 C2,25.654 3.346,27 5,27 C6.654,27 8,25.654 8,24 C8,22.346 6.654,21 5,21 C3.346,21 2,22.346 2,24 L2,24 Z M46,5.291 L46,42.709 C46,44.524 44.524,46 42.71,46 L5.29,46 C3.476,46 2,44.524 2,42.709 L2,29 L4,29 L4,42.709 C4,43.421 4.579,44 5.29,44 L42.71,44 C43.421,44 44,43.421 44,42.709 L44,5.291 C44,4.579 43.421,4 42.71,4 L5.29,4 C4.579,4 4,4.579 4,5.291 L4,19 L2,19 L2,5.291 C2,3.476 3.476,2 5.29,2 L42.71,2 C44.524,2 46,3.476 46,5.291 L46,5.291 Z M5.871,36 L9.482,36 C13.849,36 18.857,33.135 20.885,29.477 L22.635,30.447 C20.247,34.753 14.594,38 9.482,38 L5.871,38 L5.871,36 Z M36.503,9 L38.383,9 L37.073,7.69 L38.487,6.276 L41.7,9.49 C42.091,9.88 42.091,10.513 41.7,10.904 L38.487,14.117 L37.073,12.703 L38.775,11 L36.503,11 C32.65,11 27.638,13.109 25.122,17.82 L23.358,16.877 C25.874,12.166 31.156,9 36.503,9 L36.503,9 Z M23.994,23.667 C24.082,30.467 29.69,36 36.496,36 L38.52,36 L37.073,34.553 L38.487,33.139 L41.7,36.353 C42.091,36.743 42.091,37.376 41.7,37.767 L38.487,40.979 L37.073,39.565 L38.639,38 L36.496,38 C28.603,38 22.097,31.582 21.994,23.693 C21.901,16.575 16.405,11 9.482,11 L5.871,11 L5.871,9 L9.482,9 C17.512,9 23.887,15.442 23.994,23.667 L23.994,23.667 Z M12,18 C11.448,18 11,17.551 11,17 C11,16.449 11.448,16 12,16 C12.552,16 13,16.449 13,17 C13,17.551 12.552,18 12,18 L12,18 Z M12,14 C10.346,14 9,15.346 9,17 C9,18.654 10.346,20 12,20 C13.654,20 15,18.654 15,17 C15,15.346 13.654,14 12,14 L12,14 Z M14.263,26.34 L16.12,27.185 L15.275,29.042 L13.418,28.198 L14.263,26.34 Z M10.77,29.191 L16.27,31.691 L18.769,26.191 L13.269,23.691 L10.77,29.191 Z M37.999,18 L41.024,18 L41.003,27 L37.989,27 L37.999,18 Z M35.987,29 L42.997,29 L43.03,16 L36.001,16 L35.987,29 Z M28.999,20 L32.024,20 L32.003,27 L28.989,27 L28.999,20 Z M26.987,29 L33.997,29 L34.03,18 L27.001,18 L26.987,29 Z" id="Fill-1" fill="#4D27AA"></path>
    </g>
</svg>