<?xml version="1.0" encoding="UTF-8"?>
<svg width="48px" height="48px" viewBox="0 0 48 48" version="1.1" xmlns="http://www.w3.org/2000/svg" xmlns:xlink="http://www.w3.org/1999/xlink">
    <title>Icon-Architecture-Category/32/Game-Tech_32</title>
    <defs>
        <linearGradient x1="0%" y1="100%" x2="100%" y2="0%" id="linearGradient-1">
            <stop stop-color="#4D27A8" offset="0%"></stop>
            <stop stop-color="#A166FF" offset="100%"></stop>
        </linearGradient>
    </defs>
    <g id="Icon-Architecture-Category/32/Game-Tech_32" stroke="none" stroke-width="1" fill="none" fill-rule="evenodd">
        <rect id="Rectangle" fill="url(#linearGradient-1)" x="4" y="4" width="40" height="40"></rect>
        <rect id="#879196-Border-Copy-12" stroke="#879196" stroke-width="2" x="1" y="1" width="46" height="46"></rect>
        <g id="Icon-Category/32/Game-Tech_32" transform="translate(8.000000, 8.000000)" fill="#FFFFFF">
            <path d="M29,14.652 C28.004,16.069 26.359,17 24.5,17 C23.327,17 22.241,16.628 21.348,16 L21.268,16 C21.461,16.449 21.658,16.924 21.865,17.435 C22.995,20.219 24.543,24.033 26.543,24.033 C28.892,24.033 28.996,21.62 29,21.345 L29,14.652 Z M10.732,16 L10.652,16 C9.759,16.628 8.673,17 7.5,17 C5.641,17 3.996,16.069 3,14.652 L3,21.351 C3.004,21.62 3.108,24.033 5.457,24.033 C7.457,24.033 9.005,20.219 10.135,17.435 C10.342,16.924 10.539,16.449 10.732,16 L10.732,16 Z M3,11.5 C3,13.981 5.019,16 7.5,16 C9.981,16 12,13.981 12,11.5 C12,9.018 9.981,7 7.5,7 C5.019,7 3,9.018 3,11.5 L3,11.5 Z M12.393,9 C12.778,9.751 13,10.599 13,11.5 C13,12.828 12.526,14.048 11.739,15 L20.261,15 C19.474,14.048 19,12.828 19,11.5 C19,10.599 19.222,9.751 19.607,9 L12.393,9 Z M20,11.5 C20,13.981 22.019,16 24.5,16 C26.981,16 29,13.981 29,11.5 C29,9.018 26.981,7 24.5,7 C22.019,7 20,9.018 20,11.5 L20,11.5 Z M30,11.5 C30,11.559 29.993,11.617 29.991,11.676 L30,11.676 L30,21.351 C29.988,22.627 29.251,25.033 26.543,25.033 C23.869,25.033 22.244,21.028 20.939,17.811 C20.668,17.145 20.417,16.536 20.174,16 L11.826,16 C11.583,16.536 11.332,17.145 11.061,17.811 C9.756,21.028 8.131,25.033 5.457,25.033 C2.749,25.033 2.012,22.627 2,21.355 L2,11.676 L2.009,11.676 C2.007,11.617 2,11.559 2,11.5 C2,8.467 4.468,6 7.5,6 C9.204,6 10.729,6.779 11.739,8 L20.261,8 C21.271,6.779 22.796,6 24.5,6 C27.532,6 30,8.467 30,11.5 L30,11.5 Z M23,12 L26,12 L26,11 L23,11 L23,12 Z M7,12 L6,12 L6,11 L7,11 L7,10 L8,10 L8,11 L9,11 L9,12 L8,12 L8,13 L7,13 L7,12 Z" id="Gaem-Tech_Category-Icon_32_Squid--"></path>
        </g>
    </g>
</svg>